<svg xmlns="http://www.w3.org/2000/svg" version="1.1" xmlns:xlink="http://www.w3.org/1999/xlink" xmlns:svgjs="http://svgjs.dev/svgjs" width="1500" height="1500" viewBox="0 0 1500 1500"><rect width="1500" height="1500" fill="#ffffff"></rect><g transform="matrix(0.6666666666666666,0,0,0.6666666666666666,248.53011270923366,206.92043010752695)"><svg viewBox="0 0 229 248" data-background-color="#ffffff" preserveAspectRatio="xMidYMid meet" height="1624" width="1500" xmlns="http://www.w3.org/2000/svg" xmlns:xlink="http://www.w3.org/1999/xlink"><g id="tight-bounds" transform="matrix(1,0,0,1,0.33660418958550054,0.4000000000000057)"><svg viewBox="0 0 228.32679162082897 247.2" height="247.2" width="228.32679162082897"><g><svg viewBox="0 0 395.52 428.2131908653367" height="247.2" width="228.32679162082897"><g transform="matrix(1,0,0,1,0,285.63640436496985)"><svg viewBox="0 0 395.52 142.57678650036684" height="142.57678650036684" width="395.52"><g id="textblocktransform"><svg viewBox="0 0 395.52 142.57678650036684" height="142.57678650036684" width="395.52" id="textblock"><g><svg viewBox="0 0 395.52 142.57678650036684" height="142.57678650036684" width="395.52"><g transform="matrix(1,0,0,1,0,0)"><svg width="395.52" viewBox="3.49 -35.5 99.82000000000001 35.99" height="142.57678650036684" data-palette-color="#4a596d"><g class="wordmark-text-0" data-fill-palette-color="primary" id="text-0"><path d="M23.19-8.11L23.19-8.11Q23.19-6.32 22.52-4.76 21.85-3.2 20.68-2.03 19.51-0.85 17.94-0.18 16.38 0.49 14.6 0.49L14.6 0.49 12.11 0.49Q10.33 0.49 8.75-0.18 7.18-0.85 6.01-2.03 4.83-3.2 4.16-4.76 3.49-6.32 3.49-8.11L3.49-8.11 3.49-26.9Q3.49-28.69 4.16-30.25 4.83-31.81 6.01-32.98 7.18-34.16 8.75-34.83 10.33-35.5 12.11-35.5L12.11-35.5 14.6-35.5Q16.38-35.5 17.94-34.83 19.51-34.16 20.68-32.98 21.85-31.81 22.52-30.25 23.19-28.69 23.19-26.9L23.19-26.9 23.19-25.49 20.04-25 20.04-26.9Q20.04-28.08 19.6-29.09 19.17-30.1 18.41-30.86 17.65-31.62 16.64-32.06 15.63-32.5 14.45-32.5L14.45-32.5 12.26-32.5Q11.08-32.5 10.07-32.06 9.06-31.62 8.29-30.86 7.52-30.1 7.08-29.09 6.64-28.08 6.64-26.9L6.64-26.9 6.64-8.11Q6.64-6.93 7.08-5.92 7.52-4.91 8.29-4.14 9.06-3.37 10.07-2.93 11.08-2.49 12.26-2.49L12.26-2.49 14.45-2.49Q15.63-2.49 16.64-2.93 17.65-3.37 18.41-4.14 19.17-4.91 19.6-5.92 20.04-6.93 20.04-8.11L20.04-8.11 20.04-10.01 23.19-9.5 23.19-8.11ZM33.2 0L30.2 0 30.2-35.01 33.2-35.01 33.2 0ZM44.45-31.01L40.96-31.01 40.96-35.01 44.45-35.01 44.45-31.01ZM44.21 0L41.21 0 41.21-25 44.21-25 44.21 0ZM80.61 0L77.6 0 77.6-18.31Q77.6-19.21 77.26-20.01 76.92-20.8 76.34-21.39 75.75-21.97 74.96-22.31 74.16-22.66 73.26-22.66L73.26-22.66 71.77-22.66Q70.87-22.66 70.07-22.31 69.28-21.97 68.68-21.39 68.08-20.8 67.74-20.01 67.4-19.21 67.4-18.31L67.4-18.31 67.4 0 64.42 0 64.42-18.31Q64.42-19.21 64.08-20.01 63.74-20.8 63.14-21.39 62.54-21.97 61.75-22.31 60.95-22.66 60.05-22.66L60.05-22.66 58.56-22.66Q57.66-22.66 56.87-22.31 56.07-21.97 55.49-21.39 54.9-20.8 54.56-20.01 54.22-19.21 54.22-18.31L54.22-18.31 54.22 0 51.21 0 51.21-25 52.21-25 53.85-22.46Q54.88-23.85 56.43-24.67 57.98-25.49 59.81-25.49L59.81-25.49 60.05-25.49Q62.18-25.49 63.88-24.44 65.59-23.39 66.52-21.66L66.52-21.66Q66.98-22.51 67.67-23.22 68.35-23.93 69.18-24.43 70.01-24.93 70.99-25.21 71.97-25.49 73.01-25.49L73.01-25.49 73.26-25.49Q74.77-25.49 76.12-24.91 77.46-24.34 78.46-23.34 79.46-22.34 80.03-21 80.61-19.65 80.61-18.14L80.61-18.14 80.61 0ZM103.31 0L102.31 0 100.65-2.49Q99.62-1.15 98.09-0.33 96.55 0.49 94.72 0.49L94.72 0.49 93.96 0.49Q92.45 0.49 91.1-0.09 89.76-0.66 88.76-1.66 87.76-2.66 87.18-4 86.61-5.35 86.61-6.86L86.61-6.86 86.61-7.1Q86.61-8.62 87.18-9.96 87.76-11.3 88.76-12.3 89.76-13.31 91.1-13.88 92.45-14.45 93.96-14.45L93.96-14.45 100.31-14.45 100.31-18.31Q100.31-19.21 99.97-20.01 99.62-20.8 99.04-21.39 98.45-21.97 97.66-22.31 96.87-22.66 95.96-22.66L95.96-22.66 94.2-22.66Q93.3-22.66 92.51-22.31 91.71-21.97 91.13-21.39 90.54-20.8 90.2-20.01 89.86-19.21 89.86-18.31L89.86-18.31 89.86-17.41 86.86-17.9 86.86-18.14Q86.86-19.65 87.43-21 88-22.34 89-23.34 90-24.34 91.35-24.91 92.69-25.49 94.2-25.49L94.2-25.49 95.96-25.49Q97.48-25.49 98.82-24.91 100.16-24.34 101.16-23.34 102.16-22.34 102.74-21 103.31-19.65 103.31-18.14L103.31-18.14 103.31 0ZM100.31-6.69L100.31-12.11 93.96-12.11Q93.06-12.11 92.26-11.77 91.47-11.43 90.88-10.83 90.3-10.23 89.96-9.44 89.61-8.64 89.61-7.74L89.61-7.74 89.61-6.69Q89.61-5.79 89.96-4.99 90.3-4.2 90.88-3.61 91.47-3.03 92.26-2.69 93.06-2.34 93.96-2.34L93.96-2.34 95.96-2.34Q96.87-2.34 97.66-2.69 98.45-3.03 99.04-3.61 99.62-4.2 99.97-4.99 100.31-5.79 100.31-6.69L100.31-6.69Z" fill="#4a596d" data-fill-palette-color="primary"></path></g></svg></g></svg></g></svg></g></svg></g><g transform="matrix(1,0,0,1,88.60075526737566,0)"><svg viewBox="0 0 218.31848946524866 218.31848946524866" height="218.31848946524866" width="218.31848946524866"><g><svg></svg></g><g id="icon-0"><svg viewBox="0 0 218.31848946524866 218.31848946524866" height="218.31848946524866" width="218.31848946524866"><g><path d="M0 109.159c0-60.287 48.872-109.159 109.159-109.159 60.287 0 109.159 48.872 109.159 109.159 0 60.287-48.872 109.159-109.159 109.159-60.287 0-109.159-48.872-109.159-109.159zM109.159 205.461c53.186 0 96.302-43.116 96.302-96.302 0-53.186-43.116-96.302-96.302-96.301-53.186 0-96.302 43.116-96.301 96.301 0 53.186 43.116 96.302 96.301 96.302z" data-fill-palette-color="accent" fill="#4a596d" stroke="transparent"></path><ellipse rx="108.06765228529808" ry="108.06765228529808" cx="109.15924473262433" cy="109.15924473262433" fill="#4a596d" stroke="transparent" stroke-width="0" fill-opacity="1" data-fill-palette-color="accent"></ellipse></g><g transform="matrix(1,0,0,1,54.26073173604398,68.35620497372365)"><svg viewBox="0 0 109.7970259931607 81.60607951780136" height="81.60607951780136" width="109.7970259931607"><g><svg xmlns="http://www.w3.org/2000/svg" xmlns:xlink="http://www.w3.org/1999/xlink" version="1.1" x="0" y="0" viewBox="1.0370000000000061 13.608999999999998 97.92599999999999 72.783" enable-background="new 0 0 100 100" xml:space="preserve" height="81.60607951780136" width="109.7970259931607" class="icon-dxe-0" data-fill-palette-color="quaternary" id="dxe-0"><g fill="#ffffff" data-fill-palette-color="quaternary"><path d="M35.871 23.762V17.017A3.408 3.408 0 1 0 29.055 17.017V23.762A21.5 21.5 0 0 1 35.871 23.762" fill="#ffffff" data-fill-palette-color="quaternary"></path><path d="M49.906 32.412L54.685 27.633A3.408 3.408 0 0 0 49.865 22.813L45.088 27.591A21.7 21.7 0 0 1 49.906 32.412" fill="#ffffff" data-fill-palette-color="quaternary"></path><path d="M15.02 32.412A21.8 21.8 0 0 1 19.84 27.592L15.063 22.814A3.408 3.408 0 0 0 10.243 27.634z" fill="#ffffff" data-fill-palette-color="quaternary"></path><path d="M4.445 48.443H11.191A21.5 21.5 0 0 1 11.191 41.627H4.445A3.408 3.408 0 1 0 4.445 48.443" fill="#ffffff" data-fill-palette-color="quaternary"></path><path d="M15.02 57.657L10.243 62.437A3.405 3.405 0 0 0 10.243 67.256 3.4 3.4 0 0 0 12.653 68.255 3.4 3.4 0 0 0 15.063 67.256L19.84 62.478A21.7 21.7 0 0 1 15.02 57.657" fill="#ffffff" data-fill-palette-color="quaternary"></path><path d="M17.736 45.035C17.736 46.21 17.886 47.347 18.148 48.443 18.515 49.986 19.123 51.433 19.933 52.745A14.8 14.8 0 0 0 24.751 57.565C25.019 57.729 25.282 57.893 25.56 58.042A21.4 21.4 0 0 1 35.378 51.272 30.4 30.4 0 0 1 45.48 38.149 16 16 0 0 0 44.994 37.323 14.8 14.8 0 0 0 40.176 32.503 14.6 14.6 0 0 0 35.871 30.718C34.775 30.457 33.639 30.305 32.463 30.305S30.151 30.457 29.055 30.718A14.6 14.6 0 0 0 24.752 32.503 14.8 14.8 0 0 0 19.934 37.323 14.6 14.6 0 0 0 18.149 41.625 14.6 14.6 0 0 0 17.736 45.035" fill="#ffffff" data-fill-palette-color="quaternary"></path><path d="M83.811 49.99C79.475 43.142 71.842 38.913 63.743 38.913 60.163 38.913 56.741 39.732 53.659 41.187A24 24 0 0 0 50.477 42.99 24 24 0 0 0 47.159 45.709C44.048 48.75 41.741 52.639 40.671 57.068A14.67 14.67 0 0 0 33.696 59.7 14.64 14.64 0 0 0 28.553 66.218 14.7 14.7 0 0 0 27.51 71.682C27.51 79.793 34.11 86.392 42.221 86.392H80.621C81.105 86.392 81.584 86.367 82.059 86.33 91.538 85.59 98.963 77.56 98.963 68.05 98.963 59.175 92.492 51.521 83.811 49.99M80.621 78.65H42.221A6.976 6.976 0 0 1 35.252 71.681 6.95 6.95 0 0 1 38.754 65.64 7 7 0 0 1 40.945 64.836 7 7 0 0 1 42.22 64.712C43.501 64.712 44.763 65.073 45.866 65.757 46.079 65.888 46.317 65.952 46.554 65.952H46.574A1.307 1.307 0 0 0 47.832 64.291 16 16 0 0 1 47.744 62.651C47.744 61.744 47.84 60.838 47.994 59.943 48.027 59.753 48.045 59.559 48.084 59.371 48.816 55.863 50.701 52.824 53.277 50.592 56.117 48.132 59.795 46.653 63.742 46.653 68.418 46.653 72.851 48.703 75.906 52.278A16 16 0 0 1 78.578 56.673C78.775 57.166 79.25 57.491 79.777 57.491 79.81 57.491 79.843 57.489 79.877 57.487L80.01 57.479C80.239 57.462 80.467 57.454 80.696 57.454 82.149 57.454 83.604 57.776 84.966 58.392 88.767 60.109 91.222 63.9 91.222 68.05 91.221 73.895 86.465 78.65 80.621 78.65" fill="#ffffff" data-fill-palette-color="quaternary"></path></g></svg></g></svg></g></svg></g></svg></g><g></g></svg></g><defs></defs></svg><rect width="228.32679162082897" height="247.2" fill="none" stroke="none" visibility="hidden"></rect></g></svg></g></svg>